<svg xmlns="http://www.w3.org/2000/svg" viewBox="0 0 100 100">
  <!-- Red D like Netflix logo -->
  <path d="M20 15 
           C20 15, 60 15, 75 15
           C85 15, 85 25, 85 35
           C85 45, 85 65, 85 80
           C85 90, 80 90, 70 90
           C60 90, 30 90, 30 90
           L20 90 Z" 
        fill="#E50914" />
  
  <!-- White space inside the D -->
  <path d="M30 25
           C30 25, 50 25, 65 25
           C75 25, 75 30, 75 40
           C75 50, 75 60, 75 75
           C75 82, 70 80, 62 80
           C54 80, 40 80, 40 80
           L30 80 Z" 
        fill="white" />
  
  <!-- Black dot inside the D -->
  <circle cx="55" cy="52" r="13" fill="black" />
</svg>