<svg xmlns="http://www.w3.org/2000/svg" viewBox="0 0 100 100">
  <g fill="#61DAFB">
    <path d="M66.3 50c0-3.3-4.1-6.3-10.3-8.2 1.4-6.4 0.8-11.4-2-13-0.7-0.4-1.4-0.6-2.2-0.6v2.2c0.5 0 0.8 0.1 1.1 0.3 1.4 0.8 2 3.8 1.5 7.6-0.1 0.9-0.3 1.9-0.5 2.9-2-0.5-4.1-0.9-6.4-1.1-1.4-1.9-2.8-3.5-4.2-5 3.3-3 6.3-4.7 8.4-4.7V20c-2.8 0-6.4 2-10 5.4-3.6-3.4-7.2-5.3-10-5.3v2.2c2.1 0 5.1 1.7 8.4 4.7-1.4 1.5-2.8 3.1-4.1 5-2.3 0.2-4.4 0.6-6.4 1.1-0.2-1-0.4-2-0.5-2.9-0.5-3.8 0.1-6.8 1.5-7.6 0.3-0.2 0.7-0.3 1.1-0.3v-2.2c-0.8 0-1.6 0.2-2.3 0.6-2.8 1.6-3.4 6.7-2 13.1-6.2 1.9-10.2 4.9-10.2 8.2 0 3.3 4.1 6.3 10.3 8.2-1.4 6.4-0.8 11.4 2 13 0.7 0.4 1.4 0.6 2.3 0.6 2.8 0 6.4-2 10-5.4 3.6 3.4 7.2 5.3 10 5.3 0.8 0 1.6-0.2 2.3-0.6 2.8-1.6 3.4-6.7 2-13.1 6.2-1.9 10.3-4.9 10.3-8.2z"/>
    <circle cx="42.1" cy="50" r="4.6"/>
  </g>
</svg>