<svg xmlns="http://www.w3.org/2000/svg" viewBox="0 0 100 100">
  <defs>
    <linearGradient id="dripzy-gradient" x1="0%" y1="0%" x2="100%" y2="100%">
      <stop offset="0%" stop-color="#FF007A" />
      <stop offset="100%" stop-color="#9C27B0" />
    </linearGradient>
  </defs>
  
  <!-- Stylized D shape -->
  <path d="M25 15
           C25 15, 55 15, 70 15
           C85 15, 85 25, 85 40
           C85 55, 85 65, 85 75
           C85 90, 75 90, 60 90
           C45 90, 25 90, 25 90
           L25 15 Z" 
        fill="url(#dripzy-gradient)" />
  
  <!-- Inner shape to create the "D" form -->
  <path d="M35 25
           C35 25, 50 25, 60 25
           C70 25, 70 35, 70 45
           C70 55, 70 65, 70 75
           C70 80, 65 80, 55 80
           C45 80, 35 80, 35 80
           L35 25 Z" 
        fill="white" />
        
  <!-- Droplet shape to represent "dripzy" -->
  <path d="M55 45
           C55 45, 60 55, 60 62
           C60 68, 55 72, 50 72
           C45 72, 40 68, 40 62
           C40 55, 45 45, 45 45
           Z"
         fill="#FF007A" />
</svg>